<?xml version="1.0" encoding="UTF-8" standalone="no"?>
<!-- Created with Inkscape (http://www.inkscape.org/) -->

<svg
   width="102.17431mm"
   height="197.22993mm"
   viewBox="0 0 102.17431 197.22993"
   version="1.1"
   id="svg1"
   xmlns:inkscape="http://www.inkscape.org/namespaces/inkscape"
   xmlns:sodipodi="http://sodipodi.sourceforge.net/DTD/sodipodi-0.dtd"
   xmlns="http://www.w3.org/2000/svg"
   xmlns:svg="http://www.w3.org/2000/svg">
  <sodipodi:namedview
     id="namedview1"
     pagecolor="#ffffff"
     bordercolor="#000000"
     borderopacity="0.25"
     inkscape:showpageshadow="2"
     inkscape:pageopacity="0.0"
     inkscape:pagecheckerboard="0"
     inkscape:deskcolor="#d1d1d1"
     inkscape:document-units="mm"
     showgrid="true">
    <inkscape:grid
       id="grid1"
       units="mm"
       originx="-71.211715"
       originy="-51.366017"
       spacingx="0.99999998"
       spacingy="1"
       empcolor="#0099e5"
       empopacity="0.30196078"
       color="#0099e5"
       opacity="0.14901961"
       empspacing="5"
       dotted="false"
       gridanglex="30"
       gridanglez="30"
       visible="true" />
  </sodipodi:namedview>
  <defs
     id="defs1" />
  <g
     inkscape:label="Layer 1"
     inkscape:groupmode="layer"
     id="layer1"
     transform="translate(-18.841433,-13.590592)">
    <g
       id="g7">
      <path
         d="m 69.928548,14.677657 c -2.380998,-3.6e-5 -4.759054,0.03364 -7.115845,0.100769 -2.356855,0.06722 -4.686557,0.167733 -6.97115,0.300757 -2.284416,0.132922 -4.518096,0.298022 -6.68383,0.494027 -2.165726,0.195989 -4.25814,0.422396 -6.261117,0.677478 -2.003121,0.255177 -3.911783,0.538405 -5.711279,0.847493 -1.79951,0.309076 -3.485392,0.643247 -5.044653,0.999939 -1.559155,0.356579 -2.987889,0.734789 -4.275191,1.131714 -1.287297,0.397086 -2.42987,0.811907 -3.418913,1.241268 -0.494531,0.214663 -0.950068,0.432737 -1.365808,0.653707 -0.41574,0.220969 -0.791707,0.444847 -1.127063,0.671277 -0.335315,0.226344 -0.62926,0.454866 -0.882117,0.685229 -0.252857,0.230363 -0.464639,0.462582 -0.63407,0.696082 -0.16948,0.233622 -0.296483,0.46804 -0.381372,0.703316 -0.08489,0.235276 -0.12767,0.471424 -0.127641,0.70745 0.0379,0.157513 0.09476,0.314831 0.170533,0.471806 H 19.928499 V 125.06007 h 0.15503 l 3.806486,5.70973 v 78.86753 h 9.690881 v -64.33147 l 31.1304,46.69586 h 11.011731 l 29.240593,-44.36629 v 62.09802 h 9.69088 v -76.80203 l 5.1878,-7.87135 0.0863,-0.13126 v -0.0139 -99.854891 h -0.17054 c 0.0758,-0.156975 0.13265,-0.314293 0.17054,-0.471806 -1.1e-4,-0.16751 -0.0217,-0.335 -0.0646,-0.502295 -0.0427,-0.167207 -0.10684,-0.33418 -0.19223,-0.500744 -0.0854,-0.166388 -0.19209,-0.332327 -0.31988,-0.497644 -0.1279,-0.16557 -0.27694,-0.330473 -0.447,-0.494544 -0.17,-0.163882 -0.36093,-0.326892 -0.57258,-0.488859 -0.21173,-0.162198 -0.44417,-0.323312 -0.69711,-0.483174 -0.25275,-0.159647 -0.52588,-0.318003 -0.81907,-0.474907 -0.29342,-0.156919 -0.60687,-0.312348 -0.94,-0.466121 -0.33293,-0.153846 -0.68548,-0.305999 -1.0573,-0.456303 -0.372,-0.150249 -0.76316,-0.298612 -1.17305,-0.444934 -0.40986,-0.146479 -0.83841,-0.290877 -1.2852,-0.433049 -0.44679,-0.142007 -0.91171,-0.281753 -1.39423,-0.419096 -0.48237,-0.13736 -0.98227,-0.272283 -1.49913,-0.404626 -0.51698,-0.132365 -1.0508,-0.262117 -1.60094,-0.389124 -0.55004,-0.127016 -1.11628,-0.251254 -1.69808,-0.372587 -0.58198,-0.121317 -1.17939,-0.239696 -1.79163,-0.355017 -0.61201,-0.115437 -1.23872,-0.227788 -1.87947,-0.33693 -0.64075,-0.109033 -1.29539,-0.214834 -1.96318,-0.317293 -0.667995,-0.10245 -1.348965,-0.201528 -2.042257,-0.29714 -0.693134,-0.09568 -1.398413,-0.187869 -2.115117,-0.276469 -0.716622,-0.08856 -1.44448,-0.173511 -2.182812,-0.254765 -0.738607,-0.08109 -1.487484,-0.158455 -2.245858,-0.232027 -0.75815,-0.07378 -1.525638,-0.143737 -2.301668,-0.209806 -0.776018,-0.06611 -1.560392,-0.128316 -2.352312,-0.186552 -0.792039,-0.05809 -1.591403,-0.112198 -2.397269,-0.162264 -0.805818,-0.05006 -1.617937,-0.09607 -2.43551,-0.137976 -0.817531,-0.04202 -1.640331,-0.07993 -2.46755,-0.113688 -0.827393,-0.03363 -1.658982,-0.06309 -2.493905,-0.08837 -0.834823,-0.02539 -1.672786,-0.04659 -2.513025,-0.06356 -0.840205,-0.01697 -1.682478,-0.02972 -2.525944,-0.03824 -0.843373,-0.0084 -1.687713,-0.01251 -2.532145,-0.0124 z"
         style="fill:none;stroke:#000000;stroke-width:2.17413"
         id="path6" />
      <ellipse
         style="fill:none;stroke:#000000;stroke-width:1.865;stroke-dasharray:none"
         id="path7"
         cx="68.42955"
         cy="124.74629"
         rx="20"
         ry="10" />
    </g>
  </g>
</svg>
